<svg xmlns="http://www.w3.org/2000/svg" width="491.069" height="246.194" viewBox="0 0 491.069 246.194"><defs><style>.a{opacity:0.08;}.b{fill:#275c70;}.c{fill:#fff;}</style></defs><g class="a" transform="translate(-2213.968 619.452)"><g transform="translate(2401.646 -619.452)"><path class="b" d="M2363.7-503.736a57.922,57.922,0,0,1-57.857-57.857,57.924,57.924,0,0,1,57.857-57.859,57.923,57.923,0,0,1,57.857,57.859A57.922,57.922,0,0,1,2363.7-503.736Zm0-107.545a49.743,49.743,0,0,0-49.686,49.688,49.742,49.742,0,0,0,49.686,49.686,49.742,49.742,0,0,0,49.686-49.686A49.743,49.743,0,0,0,2363.7-611.281Z" transform="translate(-2305.839 619.452)"/></g><g transform="translate(2568.763 -598.1)"><path class="b" d="M2424.154-535.985a36.548,36.548,0,0,1-36.507-36.508A36.548,36.548,0,0,1,2424.154-609a36.548,36.548,0,0,1,36.505,36.507A36.548,36.548,0,0,1,2424.154-535.985Zm0-64.844a28.368,28.368,0,0,0-28.336,28.336,28.367,28.367,0,0,0,28.336,28.336,28.366,28.366,0,0,0,28.334-28.336A28.368,28.368,0,0,0,2424.154-600.829Z" transform="translate(-2387.646 609)"/></g><g transform="translate(2664.18 -582.021)"><path class="b" d="M2454.782-560.272a20.453,20.453,0,0,1-20.428-20.428,20.453,20.453,0,0,1,20.428-20.428,20.452,20.452,0,0,1,20.429,20.428A20.452,20.452,0,0,1,2454.782-560.272Zm0-32.685a12.272,12.272,0,0,0-12.257,12.257,12.27,12.27,0,0,0,12.257,12.257A12.269,12.269,0,0,0,2467.04-580.7,12.271,12.271,0,0,0,2454.782-592.958Z" transform="translate(-2434.354 601.129)"/></g><g transform="translate(2401.646 -488.974)"><path class="b" d="M2363.7-439.865a57.922,57.922,0,0,1-57.857-57.857,57.924,57.924,0,0,1,57.857-57.859,57.924,57.924,0,0,1,57.857,57.859A57.922,57.922,0,0,1,2363.7-439.865Zm0-107.545a49.744,49.744,0,0,0-49.686,49.688,49.742,49.742,0,0,0,49.686,49.686,49.742,49.742,0,0,0,49.686-49.686A49.744,49.744,0,0,0,2363.7-547.41Z" transform="translate(-2305.839 555.581)"/></g><g transform="translate(2568.763 -467.622)"><path class="b" d="M2424.154-472.114a36.548,36.548,0,0,1-36.507-36.507,36.548,36.548,0,0,1,36.507-36.508,36.548,36.548,0,0,1,36.505,36.508A36.548,36.548,0,0,1,2424.154-472.114Zm0-64.844a28.367,28.367,0,0,0-28.336,28.336,28.368,28.368,0,0,0,28.336,28.336,28.368,28.368,0,0,0,28.334-28.336A28.366,28.366,0,0,0,2424.154-536.958Z" transform="translate(-2387.646 545.129)"/></g><g transform="translate(2664.18 -451.543)"><path class="b" d="M2454.782-496.4a20.453,20.453,0,0,1-20.428-20.428,20.453,20.453,0,0,1,20.428-20.428,20.452,20.452,0,0,1,20.429,20.428A20.452,20.452,0,0,1,2454.782-496.4Zm0-32.685a12.27,12.27,0,0,0-12.257,12.257,12.272,12.272,0,0,0,12.257,12.257,12.271,12.271,0,0,0,12.257-12.257A12.269,12.269,0,0,0,2454.782-529.087Z" transform="translate(-2434.354 537.258)"/></g><g transform="translate(2277.23 -598.1)"><path class="b" d="M2281.443-535.985a36.548,36.548,0,0,1-36.507-36.508A36.548,36.548,0,0,1,2281.443-609a36.549,36.549,0,0,1,36.508,36.507A36.549,36.549,0,0,1,2281.443-535.985Zm0-64.844a28.368,28.368,0,0,0-28.336,28.336,28.367,28.367,0,0,0,28.336,28.336,28.368,28.368,0,0,0,28.336-28.336A28.37,28.37,0,0,0,2281.443-600.829Z" transform="translate(-2244.936 609)"/></g><g transform="translate(2213.968 -582.021)"><path class="b" d="M2234.4-560.272a20.451,20.451,0,0,1-20.428-20.428,20.452,20.452,0,0,1,20.428-20.428,20.453,20.453,0,0,1,20.428,20.428A20.453,20.453,0,0,1,2234.4-560.272Zm0-32.685A12.271,12.271,0,0,0,2222.14-580.7a12.269,12.269,0,0,0,12.257,12.257,12.271,12.271,0,0,0,12.257-12.257A12.272,12.272,0,0,0,2234.4-592.958Z" transform="translate(-2213.968 601.129)"/></g><g transform="translate(2277.23 -467.622)"><path class="b" d="M2281.443-472.114a36.548,36.548,0,0,1-36.507-36.507,36.548,36.548,0,0,1,36.507-36.508,36.549,36.549,0,0,1,36.508,36.508A36.549,36.549,0,0,1,2281.443-472.114Zm0-64.844a28.367,28.367,0,0,0-28.336,28.336,28.368,28.368,0,0,0,28.336,28.336,28.369,28.369,0,0,0,28.336-28.336A28.368,28.368,0,0,0,2281.443-536.958Z" transform="translate(-2244.936 545.129)"/></g><g transform="translate(2213.968 -451.543)"><path class="b" d="M2234.4-496.4a20.451,20.451,0,0,1-20.428-20.428,20.451,20.451,0,0,1,20.428-20.428,20.453,20.453,0,0,1,20.428,20.428A20.453,20.453,0,0,1,2234.4-496.4Zm0-32.685a12.269,12.269,0,0,0-12.257,12.257,12.27,12.27,0,0,0,12.257,12.257,12.272,12.272,0,0,0,12.257-12.257A12.271,12.271,0,0,0,2234.4-529.087Z" transform="translate(-2213.968 537.258)"/></g><g transform="translate(2513.147 -436.279)"><g transform="translate(0 7.68)"><rect class="b" width="34.563" height="2.043"/></g><g transform="translate(25.427)"><g transform="translate(1.021 1.021)"><path class="c" d="M2381.047-513.926a7.68,7.68,0,0,0,7.681-7.681,7.68,7.68,0,0,0-7.681-7.679,7.679,7.679,0,0,0-7.679,7.679A7.68,7.68,0,0,0,2381.047-513.926Z" transform="translate(-2373.368 529.286)"/></g><path class="b" d="M2381.569-512.383a8.712,8.712,0,0,1-8.7-8.7,8.712,8.712,0,0,1,8.7-8.7,8.712,8.712,0,0,1,8.7,8.7,8.712,8.712,0,0,1-8.7,8.7Zm0-15.36a6.665,6.665,0,0,0-6.658,6.658,6.666,6.666,0,0,0,6.658,6.66,6.666,6.666,0,0,0,6.66-6.66,6.665,6.665,0,0,0-6.66-6.658Z" transform="translate(-2372.868 529.786)"/></g></g><g transform="translate(2465.561 -498.33)"><g transform="translate(7.681 8.267)"><path class="b" d="M2441.494-504.166h-33.126v-49.178h-67.481v-2.771h2.042v.728h67.481v49.178h31.083Z" transform="translate(-2340.887 556.114)"/></g><g transform="translate(1.021 1.021)"><path class="c" d="M2352.989-551.98a7.681,7.681,0,0,0-7.681-7.681,7.681,7.681,0,0,0-7.681,7.681,7.681,7.681,0,0,0,7.681,7.679A7.681,7.681,0,0,0,2352.989-551.98Z" transform="translate(-2337.627 559.661)"/></g><path class="b" d="M2354.532-551.458a8.711,8.711,0,0,1-8.7,8.7,8.713,8.713,0,0,1-8.7-8.7,8.714,8.714,0,0,1,8.7-8.7,8.712,8.712,0,0,1,8.7,8.7Zm-15.362,0a6.666,6.666,0,0,0,6.66,6.658,6.666,6.666,0,0,0,6.66-6.658,6.666,6.666,0,0,0-6.66-6.66,6.666,6.666,0,0,0-6.66,6.66Z" transform="translate(-2337.127 560.161)"/></g><g transform="translate(2552.32 -562.614)"><path class="b" d="M2406.946-487.84H2379.6V-591.629h20.528v2.043h-18.485v99.7H2404.9v-31.1h110.643v28.076H2513.5v-26.033H2406.946Z" transform="translate(-2379.597 591.629)"/><g transform="translate(126.223 89.58)"><g transform="translate(1.021 1.021)"><path class="c" d="M2441.885-539.6a7.683,7.683,0,0,0,7.681,7.681,7.682,7.682,0,0,0,7.681-7.681,7.682,7.682,0,0,0-7.681-7.681A7.683,7.683,0,0,0,2441.885-539.6Z" transform="translate(-2441.885 547.278)"/></g><path class="b" d="M2441.385-539.076a8.715,8.715,0,0,1,8.7-8.7,8.713,8.713,0,0,1,8.7,8.7,8.712,8.712,0,0,1-8.7,8.7,8.714,8.714,0,0,1-8.7-8.7Zm15.362,0a6.666,6.666,0,0,0-6.66-6.66,6.666,6.666,0,0,0-6.66,6.66,6.666,6.666,0,0,0,6.66,6.66,6.666,6.666,0,0,0,6.66-6.66Z" transform="translate(-2441.385 547.778)"/></g></g><g transform="translate(2625.453 -475.102)"><path class="b" d="M2449.945-503.781h-4.88v-42.966h-27.626v17.431H2415.4v-19.474h31.712v42.966h2.837Z" transform="translate(-2415.396 548.791)"/><g transform="translate(25.41 35.285)"><g transform="translate(1.022 1.022)"><circle class="c" cx="7.681" cy="7.681" r="7.681"/></g><path class="b" d="M2436.538-514.113a8.713,8.713,0,0,1-8.7-8.7,8.713,8.713,0,0,1,8.7-8.7,8.712,8.712,0,0,1,8.7,8.7,8.712,8.712,0,0,1-8.7,8.7Zm0-15.362a6.666,6.666,0,0,0-6.66,6.66,6.666,6.666,0,0,0,6.66,6.66,6.666,6.666,0,0,0,6.66-6.66,6.666,6.666,0,0,0-6.66-6.66Z" transform="translate(-2427.835 531.518)"/></g></g><g transform="translate(2605.269 -545.25)"><g transform="translate(8.266)"><path class="b" d="M2481.658-551.531h-72.1v-2.043h70.053v-29.555h2.042Z" transform="translate(-2409.562 583.129)"/></g><g transform="translate(0 21.874)"><g transform="translate(1.021 1.021)"><circle class="c" cx="7.681" cy="7.681" r="7.681"/></g><path class="b" d="M2414.218-572.421a8.712,8.712,0,0,1,8.7,8.7,8.712,8.712,0,0,1-8.7,8.7,8.712,8.712,0,0,1-8.7-8.7,8.712,8.712,0,0,1,8.7-8.7Zm0,15.36a6.664,6.664,0,0,0,6.66-6.658,6.666,6.666,0,0,0-6.66-6.66,6.666,6.666,0,0,0-6.659,6.66,6.664,6.664,0,0,0,6.659,6.658Z" transform="translate(-2405.516 572.421)"/></g></g><g transform="translate(2637.69 -562.614)"><path class="b" d="M2443.7-557.164h-4.88v-32.422h-17.432v-2.043h19.475v32.422h2.837Z" transform="translate(-2421.387 591.629)"/><g transform="translate(13.173 24.741)"><g transform="translate(1.022 1.022)"><circle class="c" cx="7.681" cy="7.681" r="7.681"/></g><path class="b" d="M2436.538-562.113a8.713,8.713,0,0,1-8.7-8.7,8.713,8.713,0,0,1,8.7-8.7,8.712,8.712,0,0,1,8.7,8.7,8.712,8.712,0,0,1-8.7,8.7Zm0-15.362a6.666,6.666,0,0,0-6.66,6.66,6.666,6.666,0,0,0,6.66,6.66,6.666,6.666,0,0,0,6.66-6.66,6.666,6.666,0,0,0-6.66-6.66Z" transform="translate(-2427.835 579.518)"/></g></g><g transform="translate(2305.036 -507.821)"><g transform="translate(7.68)"><path class="b" d="M2264.35-528.79h-2.043v-24.385h149.456v-11.632h2.043v13.674H2264.35Z" transform="translate(-2262.307 564.807)"/></g><g transform="translate(0 26.879)"><g transform="translate(1.021 1.021)"><path class="c" d="M2259.047-543.468a7.681,7.681,0,0,0,7.679,7.681,7.681,7.681,0,0,0,7.681-7.681,7.681,7.681,0,0,0-7.681-7.681A7.681,7.681,0,0,0,2259.047-543.468Z" transform="translate(-2259.047 551.149)"/></g><path class="b" d="M2258.547-542.946a8.713,8.713,0,0,1,8.7-8.7,8.714,8.714,0,0,1,8.7,8.7,8.712,8.712,0,0,1-8.7,8.7,8.712,8.712,0,0,1-8.7-8.7Zm15.36,0a6.666,6.666,0,0,0-6.66-6.66,6.665,6.665,0,0,0-6.657,6.66,6.665,6.665,0,0,0,6.657,6.66,6.666,6.666,0,0,0,6.66-6.66Z" transform="translate(-2258.547 551.649)"/></g></g><g transform="translate(2327.213 -488.582)"><g transform="translate(0 7.681)"><path class="b" d="M2271.446-526.357H2269.4v-25.272h67.086v2.043h-65.044Z" transform="translate(-2269.404 551.629)"/></g><g transform="translate(57.95)"><g transform="translate(1.021 1.022)"><circle class="c" cx="7.681" cy="7.681" r="7.681"/></g><path class="b" d="M2306.473-537.984a8.712,8.712,0,0,1-8.7-8.7,8.712,8.712,0,0,1,8.7-8.7,8.712,8.712,0,0,1,8.7,8.7,8.712,8.712,0,0,1-8.7,8.7Zm0-15.362a6.666,6.666,0,0,0-6.66,6.66,6.666,6.666,0,0,0,6.66,6.66,6.666,6.666,0,0,0,6.658-6.66,6.666,6.666,0,0,0-6.658-6.66Z" transform="translate(-2297.771 555.389)"/></g></g><g transform="translate(2358.811 -456.16)"><g transform="translate(8.267 7.681)"><rect class="b" width="41.188" height="2.043"/></g><g transform="translate(1.021 1.021)"><path class="c" d="M2293.052-539.018a7.682,7.682,0,0,0-7.681,7.681,7.682,7.682,0,0,0,7.681,7.681,7.681,7.681,0,0,0,7.679-7.681A7.681,7.681,0,0,0,2293.052-539.018Z" transform="translate(-2285.371 539.018)"/></g><path class="b" d="M2293.573-539.518a8.712,8.712,0,0,1,8.7,8.7,8.712,8.712,0,0,1-8.7,8.7,8.712,8.712,0,0,1-8.7-8.7,8.712,8.712,0,0,1,8.7-8.7Zm0,15.362a6.665,6.665,0,0,0,6.657-6.66,6.665,6.665,0,0,0-6.657-6.66,6.666,6.666,0,0,0-6.66,6.66,6.666,6.666,0,0,0,6.66,6.66Z" transform="translate(-2284.871 539.518)"/></g><g transform="translate(2346.036 -567.548)"><g transform="translate(0 7.68)"><rect class="b" width="29.236" height="2.043"/></g><g transform="translate(20.099)"><g transform="translate(1.021 1.021)"><path class="c" d="M2296.637-578.184a7.681,7.681,0,0,0,7.681-7.679,7.682,7.682,0,0,0-7.681-7.681,7.681,7.681,0,0,0-7.681,7.681A7.681,7.681,0,0,0,2296.637-578.184Z" transform="translate(-2288.956 593.544)"/></g><path class="b" d="M2297.159-576.641a8.712,8.712,0,0,1-8.7-8.7,8.712,8.712,0,0,1,8.7-8.7,8.713,8.713,0,0,1,8.7,8.7,8.712,8.712,0,0,1-8.7,8.7Zm0-15.36a6.666,6.666,0,0,0-6.66,6.66,6.665,6.665,0,0,0,6.66,6.658,6.666,6.666,0,0,0,6.66-6.658,6.666,6.666,0,0,0-6.66-6.66Z" transform="translate(-2288.456 594.044)"/></g></g><g transform="translate(2357.79 -535.728)"><path class="b" d="M2324.045-556.392h-39.674v-22.076h60.593v2.043h-58.55v17.99h37.631Z" transform="translate(-2284.371 578.468)"/><g transform="translate(30.536 12.353)"><g transform="translate(1.021 1.021)"><circle class="c" cx="7.681" cy="7.681" r="7.681"/></g><path class="b" d="M2308.022-555.018a8.712,8.712,0,0,1-8.7-8.7,8.712,8.712,0,0,1,8.7-8.7,8.714,8.714,0,0,1,8.7,8.7,8.713,8.713,0,0,1-8.7,8.7Zm0-15.36a6.666,6.666,0,0,0-6.66,6.66,6.664,6.664,0,0,0,6.66,6.658,6.664,6.664,0,0,0,6.66-6.658,6.666,6.666,0,0,0-6.66-6.66Z" transform="translate(-2299.319 572.421)"/></g></g><g transform="translate(2225.694 -537.74)"><g transform="translate(7.681)"><path class="b" d="M2225.511-505.608h-2.043v-11.207h57.389v-62.638h2.043v64.68h-57.389Z" transform="translate(-2223.468 579.453)"/></g><g transform="translate(0 64.706)"><g transform="translate(1.021 1.021)"><path class="c" d="M2220.208-539.6a7.683,7.683,0,0,0,7.681,7.681,7.683,7.683,0,0,0,7.681-7.681,7.683,7.683,0,0,0-7.681-7.681A7.683,7.683,0,0,0,2220.208-539.6Z" transform="translate(-2220.208 547.278)"/></g><path class="b" d="M2219.708-539.076a8.714,8.714,0,0,1,8.7-8.7,8.715,8.715,0,0,1,8.7,8.7,8.714,8.714,0,0,1-8.7,8.7,8.712,8.712,0,0,1-8.7-8.7Zm15.362,0a6.666,6.666,0,0,0-6.66-6.66,6.666,6.666,0,0,0-6.66,6.66,6.666,6.666,0,0,0,6.66,6.66,6.666,6.666,0,0,0,6.66-6.66Z" transform="translate(-2219.708 547.778)"/></g></g><g transform="translate(2233.375 -552.631)"><g transform="translate(0 7.381)"><path class="b" d="M2264-533.542h-40.527v-49.587h2.043v47.544h36.442v-46.658H2264Z" transform="translate(-2223.468 583.129)"/></g><g transform="translate(30.805)"><g transform="translate(1.021 1.021)"><path class="c" d="M2254.407-578.561a7.681,7.681,0,0,0-7.681-7.681,7.68,7.68,0,0,0-7.678,7.681,7.68,7.68,0,0,0,7.678,7.681A7.681,7.681,0,0,0,2254.407-578.561Z" transform="translate(-2239.047 586.242)"/></g><path class="b" d="M2255.949-578.039a8.713,8.713,0,0,1-8.7,8.7,8.713,8.713,0,0,1-8.7-8.7,8.711,8.711,0,0,1,8.7-8.7,8.712,8.712,0,0,1,8.7,8.7Zm-15.359,0a6.665,6.665,0,0,0,6.657,6.66,6.666,6.666,0,0,0,6.66-6.66,6.666,6.666,0,0,0-6.66-6.66,6.665,6.665,0,0,0-6.657,6.66Z" transform="translate(-2238.547 586.742)"/></g></g><g transform="translate(2253.638 -461.3)"><g transform="translate(8.267 7.68)"><rect class="b" width="29.88" height="2.043"/></g><g transform="translate(1.022 1.022)"><circle class="c" cx="7.681" cy="7.681" r="7.681"/></g><path class="b" d="M2242.09-542.034a8.712,8.712,0,0,1,8.7,8.7,8.714,8.714,0,0,1-8.7,8.7,8.714,8.714,0,0,1-8.7-8.7,8.713,8.713,0,0,1,8.7-8.7Zm0,15.362a6.666,6.666,0,0,0,6.66-6.66,6.666,6.666,0,0,0-6.66-6.66,6.666,6.666,0,0,0-6.66,6.66,6.666,6.666,0,0,0,6.66,6.66Z" transform="translate(-2233.387 542.034)"/></g></g></svg>