<?xml version="1.0" encoding="utf-8"?>
<!-- Generator: Adobe Illustrator 23.0.1, SVG Export Plug-In . SVG Version: 6.00 Build 0)  -->
<svg version="1.1" id="Layer_1" xmlns="http://www.w3.org/2000/svg" xmlns:xlink="http://www.w3.org/1999/xlink" x="0px" y="0px"
	 viewBox="0 0 852 1080" style="enable-background:new 0 0 852 1080;" xml:space="preserve">
<style type="text/css">
	.st0{fill:#1A1A1A;}
</style>
<g>
	<g>
		<path class="st0" d="M225.9,651.1V430.8c0-10.4,3.7-19.3,11.2-26.8c7.5-7.5,16.4-11.2,26.8-11.2h133c10.4,0,19.3,3.7,26.8,11.2
			c7.5,7.5,11.2,16.4,11.2,26.8v220.3c0,5.1-2.5,7.6-7.6,7.6H374c-5.1,0-7.6-2.5-7.6-7.6V548.5h-72.2v102.6c0,5.1-2.5,7.6-7.6,7.6
			h-53.2C228.4,658.7,225.9,656.2,225.9,651.1z M366.4,457.3c0-5.3-1.8-9.8-5.5-13.5c-3.7-3.7-8.2-5.5-13.5-5.5h-34.2
			c-5.3,0-9.8,1.8-13.5,5.5c-3.7,3.7-5.5,8.2-5.5,13.5v45.6h72.2V457.3z"/>
		<path class="st0" d="M465,647.5c-7.5-7.5-11.2-16.4-11.2-26.8V430.8c0-10.4,3.7-19.3,11.2-26.8c7.5-7.5,16.4-11.2,26.8-11.2h163.4
			c5.1,0,7.6,2.5,7.6,7.6v30.4c0,5.1-2.5,7.6-7.6,7.6h-114c-5.3,0-9.8,1.8-13.5,5.5c-3.7,3.7-5.5,8.2-5.5,13.5v136.8
			c0,5.3,1.8,9.8,5.5,13.5c3.7,3.7,8.2,5.5,13.5,5.5h114c5.1,0,7.6,2.5,7.6,7.6v30.4c0,5.1-2.5,7.6-7.6,7.6H491.8
			C481.4,658.7,472.5,655,465,647.5z"/>
		<path class="st0" d="M225.9,962.4V711.7c0-5.1,2.5-7.6,7.6-7.6h53.2c5.1,0,7.6,2.5,7.6,7.6v102.6h53.2c5.3,0,9.8-1.8,13.5-5.5
			c3.7-3.7,5.5-8.2,5.5-13.5v-83.6c0-5.1,2.5-7.6,7.6-7.6h53.2c5.1,0,7.6,2.5,7.6,7.6V799c0,10.4-3.7,19.3-11.2,26.8
			c-7.5,7.5-16.4,11.2-26.8,11.2c10.4,0,19.3,3.7,26.8,11.2c7.5,7.5,11.2,16.4,11.2,26.8v87.4c0,5.1-2.5,7.6-7.6,7.6H374
			c-5.1,0-7.6-2.5-7.6-7.6v-83.6c0-5.3-1.8-9.8-5.5-13.5c-3.7-3.7-8.2-5.5-13.5-5.5h-53.2v102.6c0,5.1-2.5,7.6-7.6,7.6h-53.2
			C228.4,970,225.9,967.5,225.9,962.4z"/>
		<path class="st0" d="M465,958.8c-7.5-7.5-11.2-16.4-11.2-26.8V742.1c0-10.4,3.7-19.3,11.2-26.8c7.5-7.5,16.4-11.2,26.8-11.2h163.4
			c5.1,0,7.6,2.5,7.6,7.6v30.4c0,5.1-2.5,7.6-7.6,7.6h-114c-5.3,0-9.8,1.8-13.5,5.5c-3.7,3.7-5.5,8.2-5.5,13.5v45.6h133
			c5.1,0,7.6,2.5,7.6,7.6v30.4c0,5.1-2.5,7.6-7.6,7.6h-133v45.6c0,5.3,1.8,9.8,5.5,13.5c3.7,3.7,8.2,5.5,13.5,5.5h114
			c5.1,0,7.6,2.5,7.6,7.6v30.4c0,5.1-2.5,7.6-7.6,7.6H491.8C481.4,970,472.5,966.3,465,958.8z"/>
	</g>
	<g>
		<path class="st0" d="M156,967.2h-23V407.3c0-164.4,133.7-298.2,298.2-298.2c66.2,0,128.9,21.2,181.3,61.4
			c50.7,38.9,88.2,94,105.6,155.2c1,3.5,0.3,7.2-1.9,10.1c-2.2,2.9-5.6,4.6-9.2,4.6l-377.6,0.3c0,0,0,0,0,0c-3.6,0-6.9-1.6-9.1-4.5
			c-2.2-2.8-2.9-6.5-2.1-9.9c13.2-51.6,59.7-87.7,113-87.7c32.1,0,62.1,12.8,84.3,36l-16.6,15.9c-17.8-18.6-41.9-28.9-67.7-28.9
			c-37.7,0-71,22.4-85.8,56l345.8-0.3c-38-109.8-142.8-185.2-260.1-185.2C279.4,132.2,156,255.6,156,407.3V967.2z"/>
	</g>
</g>
</svg>
