<svg xmlns="http://www.w3.org/2000/svg" width="775" height="943" viewBox="0 0 775 943">
  <g id="Group_3" data-name="Group 3" transform="translate(-490 -135)">
    <g id="logo" transform="translate(452 25.9)">
      <g id="Group_1" data-name="Group 1">
        <path id="Path_1" data-name="Path 1" d="M225.9,651.1V430.8a38.242,38.242,0,0,1,38-38h133a38.242,38.242,0,0,1,38,38V651.1c0,5.1-2.5,7.6-7.6,7.6H374c-5.1,0-7.6-2.5-7.6-7.6V548.5H294.2V651.1c0,5.1-2.5,7.6-7.6,7.6H233.4C228.4,658.7,225.9,656.2,225.9,651.1ZM366.4,457.3a18.783,18.783,0,0,0-19-19H313.2a18.783,18.783,0,0,0-19,19v45.6h72.2V457.3Z" fill="#1a1a1a"/>
        <path id="Path_2" data-name="Path 2" d="M465,647.5a36.492,36.492,0,0,1-11.2-26.8V430.8a38.242,38.242,0,0,1,38-38H655.2c5.1,0,7.6,2.5,7.6,7.6v30.4c0,5.1-2.5,7.6-7.6,7.6h-114a18.783,18.783,0,0,0-19,19V594.2a18.783,18.783,0,0,0,19,19h114c5.1,0,7.6,2.5,7.6,7.6v30.4c0,5.1-2.5,7.6-7.6,7.6H491.8A36.978,36.978,0,0,1,465,647.5Z" fill="#1a1a1a"/>
        <path id="Path_3" data-name="Path 3" d="M225.9,962.4V711.7c0-5.1,2.5-7.6,7.6-7.6h53.2c5.1,0,7.6,2.5,7.6,7.6V814.3h53.2a18.783,18.783,0,0,0,19-19V711.7c0-5.1,2.5-7.6,7.6-7.6h53.2c5.1,0,7.6,2.5,7.6,7.6V799a38.242,38.242,0,0,1-38,38,38.242,38.242,0,0,1,38,38v87.4c0,5.1-2.5,7.6-7.6,7.6H374c-5.1,0-7.6-2.5-7.6-7.6V878.8a18.783,18.783,0,0,0-19-19H294.2V962.4c0,5.1-2.5,7.6-7.6,7.6H233.4C228.4,970,225.9,967.5,225.9,962.4Z" fill="#1a1a1a"/>
        <path id="Path_4" data-name="Path 4" d="M465,958.8A36.492,36.492,0,0,1,453.8,932V742.1a38.242,38.242,0,0,1,38-38H655.2c5.1,0,7.6,2.5,7.6,7.6v30.4c0,5.1-2.5,7.6-7.6,7.6h-114a18.783,18.783,0,0,0-19,19v45.6h133c5.1,0,7.6,2.5,7.6,7.6v30.4c0,5.1-2.5,7.6-7.6,7.6h-133v45.6a18.783,18.783,0,0,0,19,19h114c5.1,0,7.6,2.5,7.6,7.6v30.4c0,5.1-2.5,7.6-7.6,7.6H491.8A36.978,36.978,0,0,1,465,958.8Z" fill="#1a1a1a"/>
      </g>
      <g id="Group_2" data-name="Group 2">
        <path id="Path_5" data-name="Path 5" d="M156,967.2H133V407.3c0-164.4,133.7-298.2,298.2-298.2a295.323,295.323,0,0,1,181.3,61.4A300.609,300.609,0,0,1,718.1,325.7a11.424,11.424,0,0,1-1.9,10.1,11.556,11.556,0,0,1-9.2,4.6l-377.6.3h0a11.272,11.272,0,0,1-9.1-4.5,11.733,11.733,0,0,1-2.1-9.9,116.668,116.668,0,0,1,197.3-51.7l-16.6,15.9a93.736,93.736,0,0,0-153.5,27.1l345.8-.3c-38-109.8-142.8-185.2-260.1-185.2C279.4,132.2,156,255.6,156,407.3Z" fill="#1a1a1a"/>
      </g>
    </g>
    <text id="WE_PACK_WE_DELIVER" data-name="WE PACK WE DELIVER" transform="translate(490 1063)" fill="#1a1a1a" font-size="60" font-family="QUUB-Black_R, QUUB R" font-weight="800" letter-spacing="0.12em"><tspan x="0" y="0">WE PACK WE DELIVER</tspan></text>
  </g>
</svg>
